<?xml version="1.0" standalone="no"?><!DOCTYPE svg PUBLIC "-//W3C//DTD SVG 1.1//EN" "http://www.w3.org/Graphics/SVG/1.1/DTD/svg11.dtd"><svg t="1550997599851" class="icon" style="" viewBox="0 0 1024 1024" version="1.1" xmlns="http://www.w3.org/2000/svg" p-id="2364" xmlns:xlink="http://www.w3.org/1999/xlink" width="200" height="200"><defs><style type="text/css"></style></defs><path d="M129.6 992h608v-163.2h156.8V32H129.6z" fill="#E8E8E8" p-id="2365"></path><path d="M881.6 859.2h-112v112l0.016-0.016z" fill="#E8E8E8" p-id="2366"></path><path d="M97.6 0v1024h665.6l163.2-163.2V0H97.6z m672 971.2v-112h112l-112 112z m124.8-142.4h-156.8V992h-608V32h764.8v796.8z" fill="" p-id="2367"></path><path d="M243.2 152h536v32h-536zM243.2 264h536v32h-536zM243.2 376h536v32h-536zM243.2 488h536v32h-536zM243.2 600h536v32h-536zM243.2 712h536v32h-536z" fill="" p-id="2368"></path></svg>